# xmcd
#
# Track frame offsets:
#	150
#	16074
#	28305
#	42572
#	61164
#	76783
#	94282
#	109805
#	124338
#	139745
#	154862
#	168325
#	181634
#	196798
#	214225
#	227816
#	245286
#	260982
#	275921
#
# Disc length: 3886 seconds
#
# Revision: 1
# Processed by: cddbd v1.5.2PL0 Copyright (c) Steve Scherf et al.
# Submitted via: audiograbber 1.82.02
#
DISCID=0f0f2c13
DTITLE=Various Artist - Country Radio - July 2016
DYEAR=2016
DGENRE=Country
TTITLE0=Brothers Osborne - 21 Summer
TTITLE1=Maddie and Tae - Sierra (PO Clean Edit)
TTITLE2=Florida Georgia Line - H.O.L.Y.
TTITLE3=Alan Jackson - One You're Waiting On, The
TTITLE4=High Valley - Make You Mine
TTITLE5=Hillary Scott and Scott Family - Thy Will
TTITLE6=Cadillac Three - Drunk Like You
TTITLE7=Darryl Worley - Rainmaker
TTITLE8=Darius Rucker - So I Sang
TTITLE9=Mindy Miller - Lie To Me
TTITLE10=Parmalee - Roots
TTITLE11=Jerrod Niemann and Lee Brice - A Little More Love
TTITLE12=Alan Turner and Steel Horse Band - Windows and Mirrors
TTITLE13=Brad Paisley (Ft. Demi Lovato) - Without A Fight
TTITLE14=Craig Morgan - I'll Be Home Soon
TTITLE15=Brett Eldredge - Wanna Be That Song
TTITLE16=Josh Turner - Hometown Girl
TTITLE17=Joe Nichols - Undone
TTITLE18=Garry Lee - America
EXTD=
EXTT0=
EXTT1=
EXTT2=
EXTT3=
EXTT4=
EXTT5=
EXTT6=
EXTT7=
EXTT8=
EXTT9=
EXTT10=
EXTT11=
EXTT12=
EXTT13=
EXTT14=
EXTT15=
EXTT16=
EXTT17=
EXTT18=
PLAYORDER=
